<?xml version="1.0" encoding="UTF-8" standalone="no"?>
<!DOCTYPE svg PUBLIC "-//W3C//DTD SVG 1.1//EN" "http://www.w3.org/Graphics/SVG/1.1/DTD/svg11.dtd">
<svg width="100%" height="100%" viewBox="0 0 4000 3000" version="1.1" xmlns="http://www.w3.org/2000/svg" xmlns:xlink="http://www.w3.org/1999/xlink" xml:space="preserve" xmlns:serif="http://www.serif.com/" style="fill-rule:evenodd;clip-rule:evenodd;stroke-linejoin:round;stroke-miterlimit:2;">
    <rect id="Coding-For-Kids-1" serif:id="Coding For Kids 1" x="0" y="0" width="4000" height="3000" style="fill:none;"/>
    <g id="Coding-For-Kids-11" serif:id="Coding For Kids 1">
        <rect x="0" y="0" width="4000" height="3000" style="fill:white;"/>
        <g id="Back">
            <path d="M732.622,2565.75l2543.6,-0c0,-0 339.44,-346.557 145.474,-734.488c-143.713,-287.428 -385.817,-345.907 -238.048,-849.275c105.324,-358.782 -434.112,-709.115 -841.987,-464.402c-364.333,218.59 -466.26,76.677 -804.63,-81.818c-288.242,-135.014 -877.464,117.32 -658.929,682.877c144.035,372.757 32.732,345.855 -195.729,604.173c-396.163,447.937 50.254,842.933 50.254,842.933Z" style="fill:url(#_Linear1);"/>
            <path d="M806.791,1594.12c-35.759,34.847 -77.634,75.788 -124.423,128.691c-104.666,118.345 -150.519,232.995 -161.328,337.627c158.914,245.65 549.773,-42.962 733.125,219.346c62.052,88.773 96.947,187.533 130.901,285.96l618.498,-0c-134.645,-92.37 -310.688,-90.472 -375.941,-197.144c-85.781,-140.229 22.989,-370.737 -130.511,-453.737c-163.97,-88.662 -358.708,40.379 -520.854,-77.07c-54.144,-39.219 -107.251,-147.61 -169.467,-243.673Zm2433.87,-30.273c-83.669,185.932 -26.577,523.17 -247.128,592.243c-89.029,27.883 -185.933,21.231 -277.797,23.805c-168.549,4.723 -338.25,47.87 -481.265,140.292c-101.408,65.536 -149.35,154.649 -178.889,245.557l310.053,-0c49.622,-55.323 122.485,-84.989 222.317,-65.789c71.739,13.798 132.763,56.196 207.34,60.965c144.199,9.222 311.04,-50.931 408.467,-159.459c103.951,-115.795 96.03,-293.061 202.045,-404.762c18.101,-19.072 38.307,-34.254 59.87,-46.933c-9.603,-38.805 -23.948,-78.437 -43.985,-118.51c-55.056,-110.114 -124.553,-186.625 -181.028,-267.409Zm-47.793,-725.809c-172.053,3.218 -280.058,226.912 -387.182,563.196c-51.715,162.345 -324.703,10.932 -512.456,169.006c-133.585,112.47 -160.972,395.606 -357.651,434.938c-198.605,39.717 -108.246,-258.758 -113.366,-363.534c-3.971,-81.266 -35.49,-183.66 -97.792,-240.41c-100.713,-91.737 -407.158,12.41 -522.502,-172.13c-136.055,-217.675 -259.645,-240.409 -360.223,-234.376c7.753,39.43 19.725,80.758 36.399,123.91c56.26,145.599 73.564,230.222 60.15,294.662c171.487,52.694 361.201,-11.003 608.07,103.669c252.948,117.495 136.387,496.074 320.618,584.239c275.552,131.866 339.711,-264.358 509.503,-363.517c66.697,-38.95 143.685,-17.183 216.167,-15.819c136.039,2.56 299.906,-26.731 406.811,-118.089c101.133,-86.426 1.481,-226.833 83.531,-310.211c17.464,-17.747 35.767,-33.565 54.67,-47.691c1.235,-72.597 15.083,-158.495 46.026,-263.9c14.271,-48.615 16.705,-97.075 9.227,-143.943Zm-1946.79,-425.719c-109.121,22.913 -217.212,77.729 -295.789,162.543c1.482,5.882 3.124,11.771 4.926,17.656c82.623,269.913 436.897,133.368 620.21,241.149c208.95,122.855 165.241,481.611 417.034,545.086c226.542,57.11 216.37,-273.309 350.438,-365.716c74.599,-51.418 157.903,-32.328 240.069,-24.597c238.199,22.413 398.784,-147.309 514.971,-346.479c-50.583,-59.26 -117.58,-109.531 -194.05,-145.572c-42.006,65.937 -82.891,135.365 -147.083,174.07c-131.107,79.054 -293.806,3.394 -424.671,76.322c-136.599,76.124 -219.013,361.163 -401.609,218.805c-88.226,-68.784 -99.194,-199.787 -202.81,-250.951c-132.358,-65.356 -312.585,24.191 -424.591,-91.387c-48.482,-50.027 -50.492,-131.395 -57.045,-210.929Z" style="fill:url(#_Linear2);"/>
            <path d="M557.733,2309.24c1.337,3.385 2.702,6.752 4.09,10.091c39.322,15.299 80.996,16.235 124.06,12.81c84.231,-6.697 173.87,-30.622 261.237,7.107c83.456,36.04 112.972,103.478 144.449,168.81c9.493,19.702 19.16,39.219 30.436,57.69l8.892,-0c-12.209,-19.418 -22.427,-40.111 -32.484,-60.987c-32.226,-66.887 -62.84,-135.589 -148.282,-172.487c-88.579,-38.253 -179.449,-14.495 -264.851,-7.705c-44.407,3.531 -87.311,2.324 -127.547,-15.329Zm2448.9,256.508l11.813,-0c43.257,-37.99 62.796,-87.532 81.173,-138.084c24.777,-68.156 47.393,-138.21 126.821,-182.426c76.847,-42.778 160.898,-33.354 239.886,-33.078c0.572,-2.5 1.135,-5.035 1.684,-7.58c-80.693,-0.056 -166.668,-9.731 -245.265,34.021c-81.318,45.268 -104.898,116.691 -130.265,186.468c-18.575,51.097 -38.126,101.284 -83.588,138.84c-0.747,0.617 -1.501,1.231 -2.259,1.839Zm159.778,-1138.22c-104.768,94.187 -121.034,176.08 -129.201,254.778c-9.277,89.4 -7.65,174.731 -117.556,269.786c-62.957,54.449 -147.786,58.512 -230.914,54.602c-84.688,-3.983 -167.703,-16.16 -225.173,5.711c-82.368,31.346 -123.167,106.773 -172.514,179.322c-48.364,71.103 -105.232,139.306 -220.356,157.893c-42.137,6.804 -72.288,1.676 -95.263,-11.6c-34.72,-20.061 -53.003,-58.401 -71.76,-100.83c-32.254,-72.964 -65.501,-157.849 -177.984,-188.786c-113.495,-31.216 -133.747,-98.32 -150.541,-165.644c-17.372,-69.642 -31.331,-139.399 -134.012,-172.974c-75.594,-24.718 -145.936,-18.926 -214.702,-16.575c-67.672,2.314 -133.808,1.272 -201.972,-36.931c-63.114,-35.373 -76.821,-84.956 -91.56,-128.352c-6.047,-17.803 -12.292,-34.592 -21.841,-49.134c-1.473,2.314 -2.993,4.618 -4.561,6.916c8.237,13.362 13.757,28.607 19.209,44.661c15.247,44.889 29.753,95.945 95.039,132.536c69.519,38.962 136.928,40.256 205.945,37.896c67.923,-2.323 137.415,-8.212 212.082,16.203c99.246,32.452 112.212,100.28 129.003,167.592c17.369,69.629 38.517,138.846 155.897,171.13c109.674,30.165 141.602,113.391 173.051,184.533c19.466,44.035 38.873,83.517 74.907,104.337c24.193,13.978 55.903,19.686 100.274,12.522c117.673,-19 175.992,-88.444 225.426,-161.121c48.451,-71.232 88.062,-145.718 168.934,-176.495c56.688,-21.572 138.582,-9.151 222.115,-5.222c85.093,4.002 171.795,-0.708 236.24,-56.445c111.991,-96.857 110.69,-183.651 120.143,-274.747c7.957,-76.678 23.862,-156.367 124.54,-247.911c-0.983,-2.529 -1.949,-5.081 -2.895,-7.651Zm-12.686,-704.157c-18.067,2.824 -34.541,7.161 -49.679,12.853c-49.65,18.671 -85.004,51.916 -115.112,94.624c-29.751,42.199 -54.379,93.687 -82.878,149.328c-11.681,22.807 -31.055,35.299 -54.73,42.173c-24.396,7.083 -53.29,8.253 -83.301,8.281c-36.649,0.035 -74.942,-1.647 -108.949,3.143c-23.16,3.262 -44.356,9.528 -61.83,21.179c-43.667,29.114 -54.359,64.641 -68.932,103.848c-21.217,57.081 -51.426,121.778 -212.128,184.775c-42.548,16.678 -72.263,49.905 -95.748,90.058c-23.129,39.543 -40.222,85.814 -57.904,129.182c-13.975,34.277 -28.309,66.727 -46.424,92.442c-26.565,37.711 -61.355,60.717 -115.561,52.757c-34.682,-5.094 -58.385,-17.025 -74.317,-34.243c-15.922,-17.206 -24.045,-39.615 -27.862,-65.365c-5.216,-35.181 -2.391,-76.516 0.349,-119.667c6.984,-110.022 13.026,-231.386 -108.994,-295.401c-43.918,-23.04 -91.346,-30.663 -138.382,-40.194c-46.162,-9.354 -91.952,-20.563 -133.447,-50.902c-44.715,-32.693 -73.008,-80.035 -105.197,-123.07c-32.912,-44.002 -69.823,-83.547 -131.185,-99.612c-71.955,-18.837 -146.418,-1.373 -219.357,9.443c-71.477,10.6 -141.501,14.772 -206.068,-30.328c-9.752,-6.812 -17.265,-15.382 -22.983,-25.157c-0.412,4.006 -0.778,8.054 -1.094,12.129c5.386,7.294 11.904,13.79 19.727,19.255c66.301,46.312 138.136,42.5 211.532,31.615c71.933,-10.667 145.356,-28.186 216.32,-9.608c59.497,15.576 95.113,54.148 127.025,96.813c32.635,43.631 61.463,91.506 106.796,124.652c42.439,31.029 89.211,42.648 136.422,52.214c46.338,9.39 93.096,16.779 136.362,39.477c118.857,62.355 111.745,181.023 104.942,288.193c-2.776,43.726 -5.567,85.612 -0.282,121.262c4.057,27.374 12.874,51.119 29.8,69.41c16.916,18.28 41.968,31.191 78.789,36.599c57.602,8.46 94.645,-15.824 122.875,-55.897c18.416,-26.142 33.041,-59.103 47.248,-93.95c17.548,-43.037 34.474,-88.972 57.426,-128.214c22.597,-38.634 51.027,-70.774 91.964,-86.821c164.236,-64.382 194.793,-130.864 216.476,-189.2c14.028,-37.739 23.994,-72.151 66.025,-100.175c20.778,-13.853 47.142,-19.524 75.702,-21.835c29.154,-2.359 60.579,-1.182 90.871,-1.211c30.775,-0.029 60.395,-1.319 85.412,-8.582c25.737,-7.473 46.674,-21.212 59.373,-46.005c28.321,-55.293 52.761,-106.478 82.325,-148.414c29.206,-41.428 63.416,-73.78 111.578,-91.89c15.387,-5.786 32.188,-10.12 50.697,-12.845c-1.208,-2.386 -2.438,-4.756 -3.692,-7.119Zm-1641.81,-298.12c4.068,64.519 23.187,130.906 62.206,173.438c49.166,53.593 95.965,61.669 142.523,62.725c45.098,1.023 89.978,-4.916 136.62,19.91c37.831,20.136 56.24,60.167 78.34,93.999c23.181,35.487 50.162,64.416 104.519,60.205c76.373,-5.915 122.641,-42.798 164.723,-86.631c41.221,-42.937 78.331,-92.651 136.951,-125.277c22.587,-12.571 51.502,-19.498 83.6,-24.056c48.895,-6.944 105.103,-8.341 157.965,-15.022c89.82,-11.354 169.817,-38.172 190.373,-130.555c0.242,-1.088 0.474,-2.169 0.695,-3.238c-2.45,-0.545 -4.936,-1.08 -7.426,-1.602c-0.218,1.057 -0.446,2.12 -0.684,3.19c-19.785,88.919 -97.459,113.741 -183.91,124.668c-52.901,6.687 -109.15,8.089 -158.081,15.038c-33.12,4.703 -62.92,11.969 -86.226,24.94c-59.33,33.021 -97.017,83.197 -138.737,126.653c-40.859,42.56 -85.676,78.575 -159.829,84.319c-50.877,3.941 -75.877,-23.571 -97.573,-56.786c-22.777,-34.869 -42.141,-75.798 -81.131,-96.551c-47.821,-25.453 -93.779,-19.75 -140.017,-20.798c-44.777,-1.015 -89.812,-8.724 -137.098,-60.266c-37.273,-40.628 -55.748,-103.609 -60.093,-165.329c-2.549,-1.019 -5.119,-2.01 -7.71,-2.974Z" style="fill:url(#_Linear3);"/>
            <g>
                <rect x="1793.21" y="1444.33" width="273.053" height="120.018" style="fill:rgb(159,173,227);"/>
                <path d="M2160.86,1585.66c-0,-23.544 -19.087,-42.631 -42.632,-42.631c-88.022,-0 -288.972,-0 -376.994,-0c-23.545,-0 -42.632,19.087 -42.632,42.631c0,0.001 0,0.001 0,0.001l462.258,0l-0,-0.001Z" style="fill:rgb(212,218,242);"/>
                <path d="M2419.51,889.844c0,-9.971 -8.095,-18.066 -18.066,-18.066l-943.416,-0c-9.971,-0 -18.066,8.095 -18.066,18.066l-0,566.078c-0,9.971 8.095,18.066 18.066,18.066l943.416,0c9.971,0 18.066,-8.095 18.066,-18.066l0,-566.078Z" style="fill:rgb(212,218,242);"/>
                <path d="M2400.97,905.706c0,-8.495 -6.897,-15.392 -15.392,-15.392l-911.692,-0c-8.495,-0 -15.392,6.897 -15.392,15.392l-0,482.294c-0,8.496 6.897,15.393 15.392,15.393l911.692,-0c8.495,-0 15.392,-6.897 15.392,-15.393l0,-482.294Z" style="fill:rgb(30,31,120);"/>
                <g>
                    <path d="M1896.99,1074.36c0,-2.45 -1.988,-4.438 -4.438,-4.438l-360.86,-0c-2.45,-0 -4.439,1.988 -4.439,4.438l0,20.711c0,2.45 1.989,4.439 4.439,4.439l360.86,-0c2.45,-0 4.438,-1.989 4.438,-4.439l0,-20.711Z" style="fill:rgb(242,220,160);"/>
                    <path d="M2105.52,1074.36c-0,-2.45 -1.989,-4.438 -4.439,-4.438l-173.182,-0c-2.449,-0 -4.438,1.988 -4.438,4.438l0,20.711c0,2.45 1.989,4.439 4.438,4.439l173.182,-0c2.45,-0 4.439,-1.989 4.439,-4.439l-0,-20.711Z" style="fill:rgb(131,229,205);"/>
                    <path d="M1680.67,1131.93c0,-2.45 -1.988,-4.438 -4.438,-4.438l-144.54,-0c-2.45,-0 -4.439,1.988 -4.439,4.438l0,20.711c0,2.45 1.989,4.438 4.439,4.438l144.54,0c2.45,0 4.438,-1.988 4.438,-4.438l0,-20.711Z" style="fill:rgb(228,147,195);"/>
                    <path d="M2046.84,1131.93c0,-2.45 -1.988,-4.438 -4.438,-4.438l-336.144,-0c-2.45,-0 -4.438,1.988 -4.438,4.438l-0,20.711c-0,2.45 1.988,4.438 4.438,4.438l336.144,0c2.45,0 4.438,-1.988 4.438,-4.438l0,-20.711Z" style="fill:rgb(76,171,255);"/>
                    <path d="M1827.65,1189.49c-0,-2.45 -1.989,-4.438 -4.438,-4.438l-291.519,-0c-2.45,-0 -4.439,1.988 -4.439,4.438l0,20.711c0,2.45 1.989,4.438 4.439,4.438l291.519,0c2.449,0 4.438,-1.988 4.438,-4.438l-0,-20.711Z" style="fill:rgb(131,229,205);"/>
                    <path d="M2046.84,1247.06c0,-2.45 -1.988,-4.438 -4.438,-4.438l-507.491,-0c-2.45,-0 -4.438,1.988 -4.438,4.438l-0,20.711c-0,2.45 1.988,4.438 4.438,4.438l507.491,0c2.45,0 4.438,-1.988 4.438,-4.438l0,-20.711Z" style="fill:rgb(228,147,195);"/>
                    <path d="M1724.87,1304.62c-0,-2.45 -1.989,-4.438 -4.439,-4.438l-185.517,-0c-2.45,-0 -4.438,1.988 -4.438,4.438l-0,20.711c-0,2.45 1.988,4.438 4.438,4.438l185.517,0c2.45,0 4.439,-1.988 4.439,-4.438l-0,-20.711Z" style="fill:rgb(242,220,160);"/>
                </g>
                <path d="M1579.65,1027.3l17.222,-0l33.629,-96.02l-17.222,-0l-33.629,96.02Zm-2.154,-72.257l-50.24,18.551l0,15.698l50.24,18.552l0,-14.883l-32.508,-11.518l32.508,-11.518l0,-14.882Zm54.139,-0l-0,14.882l32.508,11.518l-32.508,11.518l-0,14.883l50.24,-18.552l-0,-15.698l-50.24,-18.551Z" style="fill:rgb(228,243,255);fill-rule:nonzero;"/>
            </g>
            <g>
                <rect x="1138.94" y="1642.07" width="54.615" height="923.676" style="fill:rgb(129,141,222);"/>
                <rect x="2733.16" y="1642.07" width="54.615" height="923.676" style="fill:rgb(129,141,222);"/>
                <rect x="1101.73" y="1585.66" width="1723.26" height="69.701" style="fill:rgb(165,175,231);"/>
            </g>
            <g>
                <path d="M1197.94,1445.96c0,-0 -93.3,-171.96 -20.772,-194.912c67.754,-21.441 63.705,194.912 63.705,194.912l-42.933,-0Z" style="fill:rgb(66,149,108);"/>
                <path d="M1295.5,1446.32c-0,-0 107.739,-165.808 45.979,-192.387c-70.974,-30.545 -88.912,192.387 -88.912,192.387l42.933,-0Z" style="fill:rgb(66,149,108);"/>
                <path d="M1226.75,1445.96c0,-0 -63.325,-260.784 32.2,-260.986c94.353,-0.199 10.733,260.986 10.733,260.986l-42.933,-0Z" style="fill:rgb(91,191,119);"/>
                <path d="M1326.34,1427.55l-149.17,-0l18.381,158.112l112.408,0l18.381,-158.112Z" style="fill:rgb(165,166,232);"/>
                <path d="M1306.58,1427.55l-109.64,-0l13.51,158.112l82.62,0l13.51,-158.112Z" style="fill:rgb(197,198,236);"/>
                <path d="M1341.48,1412.1l-179.448,0l4.952,27.254l169.544,0l4.952,-27.254Z" style="fill:rgb(102,103,174);"/>
            </g>
            <path d="M3520.12,2580.94c0,-10.481 -8.509,-18.99 -18.99,-18.99l-3002.25,-0c-10.481,-0 -18.99,8.509 -18.99,18.99c-0,10.481 8.509,18.991 18.99,18.991l3002.25,-0c10.481,-0 18.99,-8.51 18.99,-18.991Z" style="fill:rgb(3,10,55);"/>
        </g>
        <g id="Front">
            <g>
                <path d="M2525.53,2381.94l0,-426.156l-72.179,-0l0,426.156l-119.968,-0c-50.687,-0 -99.297,20.135 -135.138,55.976c-22.182,22.182 -43.517,43.517 -43.517,43.517c-9.264,9.264 -9.264,24.306 -0,33.57c9.264,9.264 24.306,9.264 33.571,0c-0,0 21.334,-21.334 43.516,-43.516c26.938,-26.938 63.473,-42.071 101.568,-42.071l132.32,-0l-0,68.802c-0,13.101 10.636,23.738 23.738,23.738c13.101,0 23.738,-10.637 23.738,-23.738l-0,-68.802l132.319,-0c38.095,-0 74.63,15.133 101.568,42.071c22.182,22.182 43.517,43.516 43.517,43.516c9.264,9.264 24.306,9.264 33.57,0c9.264,-9.264 9.264,-24.306 0,-33.57c0,-0 -21.335,-21.335 -43.516,-43.517c-35.841,-35.841 -84.452,-55.976 -135.139,-55.976l-119.968,-0Z" style="fill:rgb(115,120,221);"/>
                <circle cx="2159.13" cy="2520.92" r="46.27" style="fill:rgb(97,101,191);"/>
                <circle cx="2489.45" cy="2520.92" r="46.27" style="fill:rgb(97,101,191);"/>
                <circle cx="2807.37" cy="2520.92" r="46.27" style="fill:rgb(97,101,191);"/>
                <path d="M2935.86,1085.25l-588.373,0l-118.11,821.511l588.372,-0l118.111,-821.511Z" style="fill:rgb(88,93,188);"/>
                <path d="M2911.88,1085.25l-588.372,0l-118.111,821.511l588.373,-0l118.11,-821.511Z" style="fill:rgb(201,203,247);"/>
                <rect x="2059.85" y="1890.12" width="760.296" height="77.498" style="fill:rgb(201,203,247);"/>
                <rect x="2504.49" y="1890.12" width="315.656" height="77.498" style="fill:rgb(88,93,188);"/>
            </g>
            <g>
                <path d="M2299.1,1393.52l-50.331,284.504l142.236,-53.73l16.135,-197.776l-108.04,-32.998Z" style="fill:rgb(255,196,205);"/>
                <path d="M2407.14,1426.52l-108.04,-32.998l-9.694,54.799c21.739,7.944 59.243,24.197 62.812,42.835c6.175,32.249 -24.264,153.154 -24.264,153.154l63.051,-20.014l16.135,-197.776Z" style="fill:rgb(238,156,176);"/>
                <path d="M2185.02,1770.91c-0,-0 -17.874,-1.268 -29.66,38.176c-14.046,47.005 -26.567,236.454 -26.567,236.454l162.104,17.827c0,-0 43.623,-206.396 77.501,-231.532c-35.938,-56.861 -100.812,-50.691 -183.378,-60.925Z" style="fill:rgb(255,173,186);"/>
                <path d="M2132.38,2040.04c0,0 127.06,16.393 171.32,9.836c-0,-0 23.435,91.225 -15.3,101.543c-58.831,15.672 -293.091,20.905 -288.326,-30.463c5.289,-57.019 64.454,-68.285 132.306,-80.916Z" style="fill:rgb(186,186,228);"/>
                <path d="M2312.26,1809.09c-0,-0 -29.804,12.962 -41.59,52.406c-14.046,47.006 -8.473,223.535 -8.473,223.535l164.811,16.119c-0,0 27.321,-164.472 61.198,-189.607c-35.938,-56.862 -93.38,-92.22 -175.946,-102.453Z" style="fill:rgb(255,196,205);"/>
                <path d="M2369.87,1591.97c-18.442,57.89 -153.339,54.792 -214.512,190.499c-0,0 96.377,19.301 137.999,39.579c81.719,-66.725 178.6,-118.287 271.815,-173.515l-195.302,-56.563Z" style="fill:rgb(201,205,234);"/>
                <path d="M2274.43,1814.13c-9.23,-6.449 -15.671,-11.06 -15.671,-11.06c51.553,-36.283 101.139,-73.728 182.098,-92.634c-0,0 -4.888,7.253 -12.531,18.49c-47.269,28.743 -93.104,58.941 -134.96,93.118c-5.477,-2.669 -11.903,-5.32 -18.936,-7.914Z" style="fill:rgb(163,169,219);"/>
                <path d="M2753.01,1666.67c0,0 21.648,161.608 -55.721,206.615c-90.916,52.887 -209.084,72.598 -209.084,72.598c0,-0 -42.105,-106.524 -197.303,-129.801c0,-0 44.918,-58.321 136.605,-98.185c73.638,-32.017 100.319,-81.109 100.319,-81.109l225.184,29.882Z" style="fill:rgb(201,205,234);"/>
                <path d="M2755.57,1702.12c1.56,50.234 -3.89,139.519 -58.288,171.164c-90.916,52.887 -209.084,72.598 -209.084,72.598c0,-0 -0.918,-2.324 -2.984,-6.361c49.679,-15.7 174.46,-56.032 190.642,-70.048c64.774,-56.104 30.417,-167.353 30.417,-167.353l49.297,0Z" style="fill:rgb(163,169,219);"/>
                <path d="M2565.18,1100.1l-18.702,153.401c50.271,34.483 109.532,48.489 159.803,10.115l0,-150.371l-141.101,-13.145Z" style="fill:rgb(255,196,205);"/>
                <path d="M2706.28,1113.25l-130.236,-12.133l-13.89,23.798l-4.16,34.121c23.709,13.336 81.41,37.784 148.286,8.229l0,-54.015Z" style="fill:rgb(216,115,138);"/>
                <path d="M2795.23,1553.69c-0,-0 20.414,94.645 87.23,97.766c85.377,3.988 123.407,-116.839 123.407,-116.839l-83.5,-70.574l-127.137,89.647Z" style="fill:rgb(255,196,205);"/>
                <path d="M2554.78,1190.73c-0,0 15.827,66.8 46.104,66.8c39.342,-0 96.402,-53.686 96.402,-53.686c-0,0 133.939,46.861 168.09,83.177c34.151,36.317 84.952,177.021 84.952,177.021l-155.1,110.296l-11.612,-34.531c0,0 -11.167,158.513 -27.822,164.555c-68.677,24.915 -372.125,-24.834 -404.596,-92.728c-9.738,-20.361 30.736,-160.511 30.736,-160.511c0,0 -88.012,-7.875 -108.502,-35.196c-5.977,-1.708 65.413,-164.397 101.22,-189.334c47.812,-33.297 180.128,-35.863 180.128,-35.863Z" style="fill:rgb(244,129,191);"/>
                <path d="M2924.29,1397.73c15.12,36.071 26.039,66.312 26.039,66.312l-155.1,110.296l-11.612,-34.531c0,0 -11.167,158.513 -27.822,164.555c-10.933,3.966 -27.817,6.04 -48.614,6.45c47.036,-89.592 61.329,-283.331 61.329,-283.331l45.884,132.601l109.896,-162.352Zm-556.181,50.95c22.623,-17.296 49.515,-47.863 76.056,-87.12c-18.7,33.011 -81.7,175.687 -73.136,271.709c-9.432,-6.944 -16.264,-14.18 -19.83,-21.635c-9.738,-20.361 30.736,-160.511 30.736,-160.511c0,0 -5.351,-0.828 -13.826,-2.443Z" style="fill:rgb(221,93,157);"/>
                <path d="M2556.89,1187.1c0,-0 11.306,62.26 43.99,64.101c31.358,1.767 87.908,-41.824 105.393,-54.729c39.896,-10.477 66.655,24.878 10.635,34.726c10.928,27.758 -36.758,50.594 -56.592,32.356c8.259,17.701 -25.372,49.088 -59.436,16.799c-6.434,15.176 -46.057,31.036 -43.99,-16.799c-17.437,7.646 -46.434,-6.519 -23.755,-41.964c-29.421,-1.05 -26.492,-54.926 23.755,-34.49Z" style="fill:rgb(255,250,253);"/>
                <path d="M2261.1,2053.53c-0,0 127.06,16.393 171.32,9.836c-0,-0 23.435,91.225 -15.3,101.543c-58.831,15.672 -293.091,20.905 -288.327,-30.463c5.289,-57.019 64.455,-68.285 132.307,-80.916Z" style="fill:rgb(212,212,238);"/>
                <g>
                    <path d="M2483.38,1016.8c0,0 6.222,37.019 30.959,44.268l-2.353,-44.268c-9.535,5.814 -19.07,4.934 -28.606,0Z" style="fill:rgb(123,66,23);"/>
                    <path d="M2795.95,1055.51c-0,-0 -22.652,32.739 -42.423,32.631l15.403,-37.698c8.012,7.779 16.629,7.768 27.02,5.067Z" style="fill:rgb(123,66,23);"/>
                    <path d="M2513.02,1006.41c0,0 -10.068,-37.174 -37.174,-20.523c-31.186,19.157 1.992,74.349 37.174,49.566l0,-29.043Z" style="fill:rgb(216,115,138);"/>
                    <path d="M2515.92,1026.85c-0,0 -8.849,-21.713 -30.126,-18.275c-1.706,0.276 -2.867,1.885 -2.591,3.591c0.275,1.706 1.884,2.868 3.591,2.592c16.556,-2.676 23.315,14.428 23.315,14.428c0.645,1.604 2.47,2.382 4.074,1.737c1.603,-0.644 2.381,-2.469 1.737,-4.073Z" style="fill:rgb(185,66,103);"/>
                    <path d="M2767.81,1040.35c-0,-0 15.901,-35.078 39.985,-14.295c27.709,23.912 -13.893,73.067 -44.644,42.961l4.659,-28.666Z" style="fill:rgb(216,115,138);"/>
                    <path d="M2766.03,1060.78c0,-0 5.801,-12.252 28.237,-8.707c1.707,0.27 3.312,-0.897 3.582,-2.604c0.27,-1.707 -0.897,-3.312 -2.604,-3.582c-13.769,-2.175 -22.346,0.845 -27.504,4.261c-5.648,3.742 -7.457,8.142 -7.457,8.142c-0.687,1.586 0.043,3.431 1.628,4.118c1.586,0.687 3.431,-0.043 4.118,-1.628Z" style="fill:rgb(185,66,103);"/>
                    <path d="M2528.92,892.45c0,-0 -87.705,243.815 94.54,264.711c170.094,19.503 159.583,-213.282 159.583,-213.282c-83.507,-114.332 -168.595,-100.668 -254.123,-51.429Z" style="fill:rgb(255,196,205);"/>
                    <path d="M2716.05,1072.74c8.805,0.457 15.583,7.976 15.126,16.78c-0.456,8.805 -7.975,15.583 -16.78,15.126c-8.805,-0.456 -15.582,-7.975 -15.126,-16.78c0.457,-8.805 7.976,-15.582 16.78,-15.126Z" style="fill:rgb(255,132,132);"/>
                    <path d="M2576.51,1064.21c8.805,0.456 15.583,7.975 15.126,16.78c-0.457,8.805 -7.976,15.582 -16.78,15.126c-8.805,-0.457 -15.583,-7.976 -15.126,-16.78c0.456,-8.805 7.975,-15.583 16.78,-15.126Z" style="fill:rgb(255,132,132);"/>
                    <path d="M2533.75,1109.78c-8.748,-29.194 -20.101,-75.191 -16.145,-106.759c0.524,-4.182 5.143,-17.674 12.071,-21.122c6.461,-1.493 82.471,-10.207 132.212,-50.684c-0,-0 31.998,50.215 95.419,75.939c3.081,6.258 3.806,15.605 8.402,20.355c-0,-0 -3.988,31.516 -10.999,59.949c31.992,-62.465 28.329,-143.58 28.329,-143.58c-83.507,-114.332 -168.595,-100.668 -254.123,-51.429c0,-0 -50.539,140.494 4.834,217.331Z" style="fill:rgb(235,159,177);"/>
                    <path d="M2519.75,820.672c-9.399,-34.223 -70.612,-98.014 -191.803,-52.931c0,-0 9.844,14.997 39.438,32.583c8.018,4.765 -27.529,45.291 -3.446,55.665c6.719,2.895 106.399,-41.507 133.347,-12.624l22.464,-22.693Z" style="fill:rgb(116,62,22);"/>
                    <path d="M2819.39,860.082c18.55,-30.257 95.094,-74.498 198.956,2.524c0,-0 -13.627,11.666 -46.946,20.324c-9.028,2.346 13.84,51.162 -12.177,54.426c-7.26,0.911 -90.65,-69.472 -124.57,-49.227l-15.263,-28.047Z" style="fill:rgb(116,62,22);"/>
                    <path d="M2511.15,798.612c-8.625,3.951 -32.637,23.628 -31.955,39.62c0.299,6.995 9.59,1.764 9.59,1.764c-0,0 19.623,-23.182 26.607,-28.852c7,-5.681 5.948,-17.2 -4.242,-12.532Z" style="fill:rgb(250,192,52);"/>
                    <path d="M2836.75,840.81c6.358,7.04 20.627,34.611 13.675,49.028c-3.041,6.307 -9.505,-2.172 -9.505,-2.172c-0,-0 -8.852,-29.055 -13.024,-37.024c-4.181,-7.988 1.342,-18.151 8.854,-9.832Z" style="fill:rgb(250,192,52);"/>
                    <path d="M2508.14,1003c5.3,-1.066 8.656,-24.433 15.618,-25.206c59.209,-15.553 105.704,-24.31 139.943,-69.007c26.02,46.197 29.673,55.93 102.531,94.213c4.321,2.271 3.63,24.738 8.507,27.045c0,-0 8.124,-11.159 21.212,-9.479c14.394,1.846 19.997,18.368 19.997,18.368c0,-0 43.065,-123.773 12.598,-182.94c-25.366,-49.26 -87.863,-66.057 -139.896,-57.031c-0,-0 -106.651,-48.643 -180.825,20.775c-40.54,37.94 -55.556,138.813 -41.213,175.668c15.279,-21.242 41.181,-14.865 41.528,7.594Z" style="fill:rgb(123,66,23);"/>
                    <path d="M2462.04,974.084c11.046,-4.643 31.533,-10.401 43.846,3.705c14.877,-19.264 49.667,-18.254 71.382,-26.98c47.058,-15.796 75.953,-46.673 90.484,-67.147c-0,-0 27.464,62.304 55.203,78.815c27.74,16.512 54.654,34.785 57.736,47.113c-0,0 18.605,-7.103 43.955,0.185c-4.701,17.663 -8.699,29.154 -8.699,29.154c0,-0 -5.603,-16.522 -19.997,-18.368c-13.088,-1.68 -21.212,9.479 -21.212,9.479c-4.877,-2.307 -4.186,-24.774 -8.507,-27.045c-72.858,-38.283 -76.511,-48.016 -102.531,-94.213c-34.239,44.697 -80.734,53.454 -139.943,69.007c-6.962,0.773 -10.318,24.14 -15.618,25.206c-0.347,-22.459 -26.249,-28.836 -41.528,-7.594c-2.226,-5.72 -3.745,-12.982 -4.571,-21.317Z" style="fill:rgb(108,55,20);"/>
                    <path d="M2561.16,998.529c0,-0 25.449,-19.214 51.836,-5.806c2.336,1.187 5.196,0.254 6.383,-2.082c1.187,-2.336 0.254,-5.196 -2.082,-6.383c-31.463,-15.987 -61.835,6.675 -61.835,6.675c-2.096,1.573 -2.521,4.551 -0.948,6.647c1.572,2.096 4.55,2.521 6.646,0.949Z" style="fill:rgb(230,137,24);"/>
                    <path d="M2728.12,997.791c-0,-0 -28.168,-21.537 -56.903,-7.703c-2.361,1.137 -3.355,3.976 -2.219,6.337c1.137,2.361 3.977,3.355 6.338,2.218c23.748,-11.433 46.986,6.667 46.986,6.667c2.075,1.6 5.059,1.214 6.658,-0.861c1.6,-2.075 1.215,-5.059 -0.86,-6.658Z" style="fill:rgb(230,137,24);"/>
                    <path d="M2566.34,1023.31c2.431,-2.901 7.478,-4.706 12.785,-4.945c7.986,-0.359 16.805,3.045 18.707,13.215c0.289,1.545 1.779,2.565 3.324,2.276c1.545,-0.289 2.565,-1.778 2.276,-3.324c-2.522,-13.484 -13.975,-18.334 -24.563,-17.858c-7.076,0.318 -13.654,3.109 -16.896,6.976c-1.009,1.205 -0.851,3.003 0.354,4.013c1.205,1.01 3.003,0.851 4.013,-0.353Z" style="fill:rgb(48,51,121);"/>
                    <path d="M2724.22,1028.22c-2.98,-4.106 -9.058,-7.251 -15.867,-7.991c-10.045,-1.091 -21.52,2.891 -26.171,15.7c-0.537,1.478 0.227,3.114 1.705,3.65c1.478,0.537 3.113,-0.227 3.65,-1.705c3.579,-9.858 12.471,-12.821 20.201,-11.981c5.043,0.548 9.664,2.633 11.871,5.673c0.923,1.273 2.706,1.556 3.979,0.632c1.272,-0.923 1.555,-2.706 0.632,-3.978Z" style="fill:rgb(48,51,121);"/>
                    <path d="M2641.07,1035.84c-0,-0 -7.879,19.51 -12.19,33.349c-1.341,4.307 -2.337,8.088 -2.691,10.631c-0.202,1.447 -0.193,2.594 -0.042,3.365c2.666,13.639 17.162,10.871 17.162,10.871c1.542,-0.305 2.547,-1.805 2.241,-3.348c-0.305,-1.542 -1.805,-2.546 -3.347,-2.241c0,-0 -8.857,1.852 -10.465,-6.375c-0.101,-0.519 0.05,-1.368 0.255,-2.473c0.424,-2.28 1.265,-5.327 2.327,-8.735c4.254,-13.657 12.032,-32.911 12.032,-32.911c0.589,-1.457 -0.117,-3.119 -1.574,-3.708c-1.458,-0.588 -3.12,0.117 -3.708,1.575Z" style="fill:rgb(242,113,133);"/>
                    <path d="M2633.55,1125.43c-0,0 5.726,6.041 14.325,5.44c3.533,-0.248 7.601,-1.588 11.925,-5.119c1.624,-1.326 1.866,-3.721 0.54,-5.344c-1.326,-1.624 -3.721,-1.866 -5.344,-0.54c-2.793,2.281 -5.369,3.265 -7.652,3.425c-4.971,0.348 -8.297,-3.104 -8.297,-3.104c-1.447,-1.517 -3.853,-1.574 -5.37,-0.128c-1.517,1.447 -1.574,3.853 -0.127,5.37Z" style="fill:rgb(247,101,101);"/>
                </g>
                <path d="M2832.4,1548.94l138.465,-197.25c0,-0 -3.485,-55.326 15.672,-66.208c19.868,-11.286 20.19,26.12 20.19,26.12c-0,-0 11.879,-23.016 31.168,-30.395c19.288,-7.379 87.727,34.221 83.331,79.725c-4.395,45.504 -162.57,269.298 -187.159,275.855c-24.588,6.557 -101.667,-87.847 -101.667,-87.847Z" style="fill:rgb(255,196,205);"/>
            </g>
        </g>
    </g>
    <defs>
        <linearGradient id="_Linear1" x1="0" y1="0" x2="1" y2="0" gradientUnits="userSpaceOnUse" gradientTransform="matrix(9.8622e-14,1610.62,-1610.62,9.8622e-14,1860.69,871.778)"><stop offset="0" style="stop-color:rgb(9,23,114);stop-opacity:1"/><stop offset="1" style="stop-color:rgb(7,13,51);stop-opacity:1"/></linearGradient>
        <linearGradient id="_Linear2" x1="0" y1="0" x2="1" y2="0" gradientUnits="userSpaceOnUse" gradientTransform="matrix(9.8007e-14,1601.51,-1600.58,9.80639e-14,1854.91,881.364)"><stop offset="0" style="stop-color:rgb(29,45,147);stop-opacity:1"/><stop offset="1" style="stop-color:rgb(10,17,65);stop-opacity:1"/></linearGradient>
        <linearGradient id="_Linear3" x1="0" y1="0" x2="1" y2="0" gradientUnits="userSpaceOnUse" gradientTransform="matrix(9.68635e-14,1591.89,-1581.9,9.74751e-14,1876.05,891.479)"><stop offset="0" style="stop-color:rgb(32,50,163);stop-opacity:1"/><stop offset="1" style="stop-color:rgb(36,45,109);stop-opacity:1"/></linearGradient>
    </defs>
</svg>
